<?xml version="1.0" encoding="UTF-8"?>
<svg version="1.1" xmlns="http://www.w3.org/2000/svg" width="1408" height="768">
<path d="M0 0 C464.64 0 929.28 0 1408 0 C1408 253.44 1408 506.88 1408 768 C943.36 768 478.72 768 0 768 C0 514.56 0 261.12 0 0 Z " fill="#FEFEFE" transform="translate(0,0)"/>
<path d="M0 0 C1.39798828 0.98226562 1.39798828 0.98226562 2.82421875 1.984375 C24.00725622 17.28172857 41.18908903 37.50936531 53.97070312 60.18066406 C54.96672992 61.9411934 55.9907426 63.68579846 57.015625 65.4296875 C77.78612396 101.58196843 83.46763118 145.13331058 78 186 C77.85175781 187.22074219 77.70351563 188.44148437 77.55078125 189.69921875 C74.54702354 209.40472143 66.86206813 230.19606123 58 248 C57.55317871 248.90459961 57.10635742 249.80919922 56.64599609 250.74121094 C33.90479323 296.42961914 2.23265635 348.02344687 -47.56640625 367.38671875 C-58.89686406 371.06041668 -71.36756257 372.10481557 -82.5390625 367.32421875 C-91.2783601 362.62164433 -98.30480555 356.01328912 -101.875 346.625 C-103.85414701 339.68606288 -104.19500482 333.61096586 -100.75 327.125 C-98.82460808 324.02572241 -96.79618375 321.38193431 -94 319 C-95.51339536 315.56046508 -97.60783685 312.74644447 -99.87890625 309.78125 C-102.4984099 305.61925117 -102.46767604 300.78468564 -102 296 C-100.19986056 289.58700323 -96.41136171 285.67681775 -91 282 C-86.13047917 280.35450377 -80.61251651 279.91767173 -75.8125 281.90625 C-70.74581277 284.90020155 -66.66373643 288.67252714 -64 294 C-63.20628516 301.61185548 -64.30754664 307.32391246 -68 314 C-67.50371094 314.268125 -67.00742187 314.53625 -66.49609375 314.8125 C-60.97361815 317.99814057 -56.69539724 321.76870328 -53 327 C-53 327.66 -53 328.32 -53 329 C-39.75730525 319.07798097 -30.2779822 304.63177671 -23 290 C-22.61328125 289.23703613 -22.2265625 288.47407227 -21.828125 287.68798828 C-15.55626838 275.16209282 -11.56638813 262.75948225 -9 249 C-8.80519043 247.98196289 -8.80519043 247.98196289 -8.60644531 246.94335938 C-2.14581542 211.79898054 -12.60396404 175.00952662 -31.26171875 145.1015625 C-33.81179688 142.01854669 -36.02479179 140.24371094 -40.09741211 139.74121094 C-42.60843335 139.62268146 -45.11133762 139.58441266 -47.625 139.5625 C-61.81111005 139.11627563 -73.27681177 134.59962457 -83.75 124.6875 C-96.16769375 111.31916941 -101.79684411 95.6837787 -101.375 77.625 C-100.94715181 70.03375075 -98.14128606 64.71767478 -92.625 59.5625 C-84.61567058 53.54698238 -76.91693961 52.75199866 -67 54 C-49.93026876 57.38102243 -35.71129657 67.84694224 -26.04052734 82.06079102 C-22.96318936 86.79107944 -20.66581151 91.61585924 -19 97 C-18.80664062 97.60585938 -18.61328125 98.21171875 -18.4140625 98.8359375 C-17.82300264 101.92506167 -17.86839218 104.92048205 -17.875 108.0625 C-17.87242187 109.29097656 -17.86984375 110.51945313 -17.8671875 111.78515625 C-18 115 -18 115 -19 118 C-19.62508896 124.74811947 -18.30947201 128.14048986 -14.5 133.625 C-13.57727082 135.02592589 -12.65673368 136.42829779 -11.73828125 137.83203125 C-11.04532959 138.87738037 -11.04532959 138.87738037 -10.33837891 139.94384766 C7.24255491 166.95344719 15.3068162 197.10690337 15.0625 229.1875 C15.05798828 230.33025391 15.05347656 231.47300781 15.04882812 232.65039062 C15.03718268 235.4336511 15.02082997 238.21679572 15 241 C36.90647182 202.93301618 43.76892711 160.07883677 32.54077148 117.45703125 C32.03972241 115.6345264 31.52031454 113.81709848 31 112 C30.72671875 111.01515625 30.4534375 110.0303125 30.171875 109.015625 C18.65592864 71.11769243 -9.38572439 40.7223339 -43.671875 21.97265625 C-54.02725902 16.4703296 -64.78256643 12.38002181 -76 9 C-76.72977051 8.7726416 -77.45954102 8.5452832 -78.21142578 8.31103516 C-90.49409725 4.6585196 -102.98104686 4.61261788 -115.6875 4.5625 C-116.51408112 4.55614532 -117.34066223 4.54979065 -118.19229126 4.54324341 C-133.32938317 4.47098416 -147.86771365 6.06366035 -162.25 11.0625 C-163.11423584 11.35777588 -163.97847168 11.65305176 -164.86889648 11.95727539 C-179.4162693 17.10222206 -193.63059552 23.70397516 -206 33 C-206.81984375 33.61101562 -207.6396875 34.22203125 -208.484375 34.8515625 C-241.90636372 60.71634995 -261.54519258 96.24546604 -268.62109375 137.6328125 C-269.3596202 144.32136971 -269.24278584 151.0904997 -269.25 157.8125 C-269.25133942 158.54721527 -269.25267883 159.28193054 -269.25405884 160.03890991 C-269.24948543 171.61009451 -268.51112479 182.68258042 -266 194 C-265.77183594 195.11632812 -265.54367187 196.23265625 -265.30859375 197.3828125 C-261.8628202 212.78049773 -253.82990623 226.89931718 -247 241 C-246.98018066 240.10394043 -246.96036133 239.20788086 -246.93994141 238.28466797 C-246.86080063 234.88861065 -246.77408996 231.49290738 -246.68261719 228.09716797 C-246.64485752 226.64086076 -246.60992376 225.18447691 -246.578125 223.72802734 C-245.87883462 192.06328484 -236.98180394 162.22972407 -218.9375 136 C-215.81671502 131.23935809 -214.92041931 127.60936772 -216 122 C-216.33 121.071875 -216.66 120.14375 -217 119.1875 C-219.4139441 111.49305318 -218.63757523 103.66354928 -215.33203125 96.375 C-212.99559416 92.20915322 -210.09424496 88.62236554 -207 85 C-206.50371094 84.38253906 -206.00742187 83.76507813 -205.49609375 83.12890625 C-203.08410607 80.17800035 -200.59141863 77.59216179 -197.66015625 75.15625 C-193.74586681 71.76992616 -190.13190506 68.14944618 -186.5234375 64.4453125 C-185.94538864 63.85462982 -185.36733978 63.26394714 -184.77177429 62.65536499 C-182.35666672 60.18618893 -179.94329419 57.71578283 -177.54882812 55.2265625 C-175.7809639 53.39209414 -173.99758131 51.57397097 -172.2109375 49.7578125 C-171.40914566 48.91260544 -171.40914566 48.91260544 -170.59115601 48.05032349 C-167.24263964 44.67833269 -164.82319474 43.02667601 -160 43 C-158 45 -158 45 -157.9921875 48.1640625 C-159.2964086 53.12819086 -161.66888634 55.69781704 -165.125 59.375 C-166.32453913 60.7016598 -167.52247 62.02977562 -168.71875 63.359375 C-169.29238281 63.99037109 -169.86601563 64.62136719 -170.45703125 65.27148438 C-172.28270123 67.31669695 -173.9725683 69.43795805 -175.625 71.625 C-178.94052571 76.004153 -182.49604786 80.16135888 -186.09423828 84.30908203 C-189.01407696 87.70872122 -191.70573942 91.1328421 -194 95 C-193.87754191 97.79561167 -193.87754191 97.79561167 -193 100 C-190.22409801 100.44538578 -190.22409801 100.44538578 -187 100 C-184.91844905 98.25879023 -183.39264142 96.74273461 -181.6875 94.6875 C-181.2138501 94.14424072 -180.7402002 93.60098145 -180.25219727 93.04125977 C-176.48541825 88.68807396 -172.86464857 84.20930877 -169.25390625 79.7265625 C-166.08576359 75.8940433 -162.73269066 72.24500479 -159.3671875 68.5859375 C-156.6519572 65.61979483 -154.00535173 62.59993794 -151.375 59.55859375 C-148.25838373 56.02583837 -148.25838373 56.02583837 -145.5 55.75 C-143 56 -143 56 -141 58 C-140.33146666 61.97050668 -140.91517405 64.27568465 -143.16796875 67.48828125 C-144.16007467 68.77426339 -145.16763701 70.04841784 -146.1875 71.3125 C-146.72415283 72.00182617 -147.26080566 72.69115234 -147.8137207 73.40136719 C-148.95230795 74.86321629 -150.09658655 76.3206478 -151.24609375 77.77392578 C-154.10284875 81.39974595 -156.89118297 85.07750364 -159.6875 88.75 C-162.70517108 92.70917365 -165.72469026 96.6638201 -168.8203125 100.5625 C-169.24481689 101.10551758 -169.66932129 101.64853516 -170.10668945 102.20800781 C-171.2261364 103.63955811 -172.35675694 105.06235163 -173.48828125 106.484375 C-175.17476045 109.29081583 -175.42166218 110.78412312 -175 114 C-173.86093519 115.37214678 -173.86093519 115.37214678 -170.8203125 115.03515625 C-165.50656684 113.59533764 -163.91085393 110.8361363 -160.875 106.4375 C-159.74457093 104.87977799 -158.61169265 103.32383086 -157.4765625 101.76953125 C-156.90325195 100.97498535 -156.32994141 100.18043945 -155.73925781 99.36181641 C-152.52172598 94.99258523 -149.0607284 90.82428166 -145.61279297 86.63647461 C-143.14857821 83.64152328 -140.70692796 80.64234685 -138.359375 77.5546875 C-137.58078125 76.54664063 -136.8021875 75.53859375 -136 74.5 C-135.34 73.6234375 -134.68 72.746875 -134 71.84375 C-132 70 -132 70 -129.3125 69.65625 C-127 70 -127 70 -126 71 C-124.75725153 79.1982864 -128.63896136 84.16259978 -133.0625 90.8125 C-133.71927734 91.82892578 -134.37605469 92.84535156 -135.05273438 93.89257812 C-136.37165643 95.93138473 -137.69781565 97.96552818 -139.03125 99.99487305 C-142.79280138 105.73655656 -146.44830321 111.5464868 -150.1171875 117.34765625 C-158.19519523 129.82369041 -166.0770429 139.50538346 -181 143 C-184.84590154 143.05550786 -188.636046 142.87443986 -192.4765625 142.6796875 C-196.75194446 143.06835859 -198.06463925 143.91066939 -201 147 C-202.58643367 149.32411108 -203.97178139 151.54398797 -205.3125 154 C-205.69494873 154.69279053 -206.07739746 155.38558105 -206.47143555 156.09936523 C-213.53766783 169.27520203 -218.81437697 183.39643336 -222 198 C-222.22429687 198.96808594 -222.44859375 199.93617188 -222.6796875 200.93359375 C-229.71667516 237.22709859 -219.09502546 275.5423286 -199.17578125 305.94921875 C-197.58842905 308.17493161 -196.00431479 310.20617956 -194.23046875 312.26953125 C-192 315 -192 315 -192 317 C-191.34 317 -190.68 317 -190 317 C-189.87431641 315.91525391 -189.87431641 315.91525391 -189.74609375 314.80859375 C-187.84449869 307.6502333 -180.77436617 302.17631691 -174.6875 298.4375 C-171.81163667 296.80274999 -169.24464195 295.66080809 -166 295 C-166.40992188 294.41992188 -166.81984375 293.83984375 -167.2421875 293.2421875 C-173.02311517 284.86122537 -175.06865409 278.26719565 -174 268 C-172.01689963 260.98196216 -166.95154545 255.25138472 -160.67578125 251.67578125 C-153.62368998 248.52060698 -147.29686839 247.50969375 -139.9140625 250.0703125 C-133.14075439 253.13084431 -128.65782306 256.50012737 -125 263 C-124.44505859 263.88945313 -124.44505859 263.88945313 -123.87890625 264.796875 C-121.51292772 270.72759452 -122.10906336 278.94933747 -123.875 284.99609375 C-126.3991691 290.45128816 -129.84748021 294.80725474 -135 298 C-135.66 298 -136.32 298 -137 298 C-137 298.66 -137 299.32 -137 300 C-136.29875 300.226875 -135.5975 300.45375 -134.875 300.6875 C-126.42149447 304.54670905 -121.56477697 312.05087447 -117.9609375 320.41015625 C-116.32728896 325.35235562 -115.67804665 330.27838445 -115.0625 335.4375 C-113.38188621 349.01904557 -108.24695424 361.27572446 -97.55859375 370.1796875 C-84.18515879 379.69422291 -69.98425261 381.56179773 -54 380 C-48.45509472 378.93508442 -43.26180614 377.02613305 -38 375 C-36.00296635 374.3244994 -34.0039417 373.65472294 -32 373 C-33.35631828 376.02874459 -34.87646766 378.1251941 -37.22119141 380.46411133 C-37.87592438 381.12192093 -38.53065735 381.77973053 -39.20523071 382.45747375 C-40.26766495 383.50912971 -40.26766495 383.50912971 -41.3515625 384.58203125 C-42.08442474 385.31443527 -42.81728699 386.04683929 -43.57235718 386.80143738 C-45.12513829 388.35119847 -46.68034803 389.89852945 -48.23779297 391.44360352 C-50.60043828 393.78812668 -52.95511735 396.14041748 -55.30859375 398.49414062 C-56.82244833 400.00307417 -58.33675717 401.51155215 -59.8515625 403.01953125 C-60.5477066 403.71456253 -61.24385071 404.40959381 -61.96109009 405.12568665 C-65.93096073 409.05796011 -69.99631664 412.82586511 -74.23129272 416.47160339 C-76.87567735 418.75670085 -79.43297894 421.12829576 -82 423.5 C-86.60695066 427.73871044 -91.25493299 431.91646557 -96 436 C-96.53447754 436.46083984 -97.06895508 436.92167969 -97.61962891 437.39648438 C-99.47432435 438.99496209 -101.33059995 440.59158397 -103.1875 442.1875 C-103.78224121 442.69917725 -104.37698242 443.21085449 -104.98974609 443.73803711 C-108.27769373 446.55700259 -111.5993277 449.31660698 -115 452 C-118.86773359 450.35435374 -121.84855585 447.7778509 -125 445.0625 C-125.5674292 444.57813477 -126.1348584 444.09376953 -126.71948242 443.59472656 C-131.68207152 439.33183983 -136.50478038 434.92462086 -141.3046875 430.48046875 C-143.48830491 428.4709078 -145.69237731 426.50232358 -147.9375 424.5625 C-155.6743768 417.84533709 -163.2243287 410.88578305 -170.3984375 403.5703125 C-172.18269706 401.82086777 -174.04396124 400.19284418 -175.9375 398.5625 C-182.15648415 393.18391911 -187.74572253 387.3564076 -193.09375 381.12109375 C-195.2630452 378.70730831 -197.55358787 376.45517574 -199.875 374.1875 C-204.16189967 369.95240577 -207.96046695 365.48962676 -211.71875 360.78515625 C-214.05706682 357.93032767 -216.49914718 355.21311657 -219 352.5 C-243.11721574 326.22414458 -263.34666061 295.89485482 -281 265 C-281.40234863 264.29746094 -281.80469727 263.59492188 -282.21923828 262.87109375 C-288.035445 252.620903 -292.64322276 241.93629353 -297 231 C-297.6041272 229.51693359 -297.6041272 229.51693359 -298.22045898 228.00390625 C-316.51861271 182.08674901 -316.05222376 128.7410508 -297.19287109 83.0925293 C-289.83932165 66.06095205 -280.64949301 50.4433757 -269 36 C-268.34644531 35.16082031 -267.69289063 34.32164062 -267.01953125 33.45703125 C-237.57096833 -3.71574489 -191.97450619 -29.65658727 -145.00830078 -36.22338867 C-94.02360657 -41.98868788 -41.18641739 -31.59836415 0 0 Z " fill="#ED7216" transform="translate(820,177)"/>
<path d="M0 0 C4.86478068 2.66496949 9.01723806 6.95669037 10.75 12.3125 C11.00926588 15.07064761 10.9302735 17.51826078 10.75 20.3125 C10.09 20.9725 9.43 21.6325 8.75 22.3125 C5.875 22.25 5.875 22.25 2.75 21.3125 C0.375 18.75 0.375 18.75 -1.25 16.3125 C-1.518125 16.91835938 -1.78625 17.52421875 -2.0625 18.1484375 C-10.56084377 36.31923832 -26.20883477 50.58264392 -44.6875 58.1875 C-65.80869024 65.62236478 -86.02132897 64.65294374 -106.25 55.3125 C-122.04056087 47.0204718 -133.801132 33.80574885 -142.25 18.3125 C-142.25 17.6525 -142.25 16.9925 -142.25 16.3125 C-142.971875 17.116875 -143.69375 17.92125 -144.4375 18.75 C-147.26010816 21.32170966 -148.48872509 22.21084392 -152.25 22.3125 C-154.58760576 19.97489424 -154.59295127 19.37991017 -154.6875 16.1875 C-154.51751433 9.96802449 -151.98214299 5.96731818 -147.59375 1.703125 C-141.81118868 -2.65829837 -135.23699086 -2.59552207 -128.25 -1.6875 C-127.26 -1.0275 -126.27 -0.3675 -125.25 0.3125 C-124.875 3.3125 -124.875 3.3125 -125.25 6.3125 C-128.47791555 8.4644437 -129.53400809 8.51336443 -133.25 8.3125 C-124.41852818 23.87139394 -109.08932199 33.36448406 -92.3828125 38.76953125 C-78.94357432 42.19087577 -61.24280753 42.27814196 -48.25 37.3125 C-46.53296875 36.67441406 -46.53296875 36.67441406 -44.78125 36.0234375 C-30.8329661 30.45008475 -17.92527237 21.56978863 -10.25 8.3125 C-11.178125 8.374375 -12.10625 8.43625 -13.0625 8.5 C-16.25 8.3125 -16.25 8.3125 -18.1875 7.125 C-19.25 5.3125 -19.25 5.3125 -19.25 2.8125 C-18.25 0.3125 -18.25 0.3125 -16.25 -1.5625 C-10.64843841 -3.6630856 -5.35385231 -2.40872751 0 0 Z " fill="#E8721B" transform="translate(776.25,347.6875)"/>
<path d="M0 0 C10.84825774 18.48920449 5.2498482 48.39664296 0.40576172 67.890625 C-2.29812131 78.07413838 -6.47815159 87.50748448 -11 97 C-12.13768092 93.1864652 -11.65749525 91.4233224 -10.0625 87.75 C-9.68222656 86.85796875 -9.30195312 85.9659375 -8.91015625 85.046875 C-8.60980469 84.37140625 -8.30945313 83.6959375 -8 83 C-7.34 83 -6.68 83 -6 83 C-5.87496094 82.15050781 -5.74992188 81.30101562 -5.62109375 80.42578125 C-4.98495301 76.91700495 -4.07878147 73.60450674 -3.0625 70.1875 C-0.39064614 61.19666095 1.30626129 53.14806255 1.23046875 43.75 C1.23001053 42.81067627 1.22955231 41.87135254 1.2290802 40.90356445 C1.22608064 38.93716147 1.21826409 36.97076037 1.20581055 35.00439453 C1.18738243 31.98070987 1.18530235 28.9573291 1.18554688 25.93359375 C1.18063727 24.0182265 1.1748114 22.10286132 1.16796875 20.1875 C1.16685593 19.28032227 1.1657431 18.37314453 1.16459656 17.43847656 C1.54176672 13.39792167 1.54176672 13.39792167 0 10 C-0.07205511 8.31391034 -0.08386068 6.62499341 -0.0625 4.9375 C-0.05347656 4.01839844 -0.04445313 3.09929687 -0.03515625 2.15234375 C-0.02355469 1.44207031 -0.01195312 0.73179687 0 0 Z " fill="#F8E0C8" transform="translate(809,370)"/>
<path d="M0 0 C0.33 0 0.66 0 1 0 C3.26207707 19.34883782 3.60863997 37.67389934 1 57 C0.84015625 58.25554687 0.6803125 59.51109375 0.515625 60.8046875 C-1.59855366 74.31828895 -6.49680411 87.13291911 -11 100 C-12.09898702 96.70303895 -11.87124444 95.59505097 -11.0625 92.3125 C-10.86785156 91.50425781 -10.67320312 90.69601562 -10.47265625 89.86328125 C-10.31667969 89.24839844 -10.16070313 88.63351562 -10 88 C-9.34 88 -8.68 88 -8 88 C-7.34 83.38 -6.68 78.76 -6 74 C-5.34 74 -4.68 74 -4 74 C-4.020625 72.700625 -4.04125 71.40125 -4.0625 70.0625 C-4.08399454 68.70834367 -4.07148199 67.35243917 -4 66 C-3.505 65.505 -3.505 65.505 -3 65 C-2.71122311 62.64853107 -2.55213738 60.29617145 -2.37890625 57.93359375 C-2 55 -2 55 -0.98852539 51.50805664 C0.32475161 46.32093523 0.2509972 41.26063111 0.1953125 35.9375 C0.1924826 34.90560547 0.18965271 33.87371094 0.18673706 32.81054688 C0.17561252 29.54024268 0.15052226 26.27022032 0.125 23 C0.11496022 20.77213939 0.10583612 18.54427446 0.09765625 16.31640625 C0.07569855 10.87750929 0.0422986 5.43877479 0 0 Z " fill="#DB8749" transform="translate(897,306)"/>
<path d="M0 0 C3.49504558 0.01081677 6.98958816 0.00000235 10.48461914 -0.01269531 C12.72094839 -0.01137525 14.95727733 -0.00881605 17.19360352 -0.00488281 C18.23114273 -0.00893127 19.26868195 -0.01297974 20.33766174 -0.01715088 C25.46746718 0.01611417 29.58460321 0.32899158 34.40844727 2.26074219 C36.514956 2.69073326 36.514956 2.69073326 38.49438477 2.89355469 C39.19692383 2.97734375 39.89946289 3.06113281 40.62329102 3.14746094 C41.33614258 3.22609375 42.04899414 3.30472656 42.78344727 3.38574219 C43.8875293 3.51529297 43.8875293 3.51529297 45.01391602 3.64746094 C46.81143909 3.85756104 48.60986068 4.05994986 50.40844727 4.26074219 C50.40844727 4.92074219 50.40844727 5.58074219 50.40844727 6.26074219 C52.05844727 6.59074219 53.70844727 6.92074219 55.40844727 7.26074219 C50.38397963 8.81020793 45.95991633 7.15627771 41.01782227 5.90722656 C27.63923124 2.69032577 14.32337986 1.92916636 0.62524414 2 C-1.85351661 2.01079429 -4.33156265 1.99999115 -6.81030273 1.98730469 C-14.71681882 1.9813946 -22.26406955 2.20242251 -30.03979492 3.83203125 C-32.92611436 4.31695059 -35.67011713 4.32793841 -38.59155273 4.26074219 C-38.26155273 3.60074219 -37.93155273 2.94074219 -37.59155273 2.26074219 C-25.48451954 -0.80712505 -12.37463643 -0.04570503 0 0 Z " fill="#F8D9BA" transform="translate(704.591552734375,138.7392578125)"/>
<path d="M0 0 C0.99 0.495 0.99 0.495 2 1 C2.66194575 3.74454966 3.17453277 6.3954868 3.6015625 9.1796875 C3.732211 10.02570526 3.8628595 10.87172302 3.99746704 11.74337769 C5.29727519 20.92461547 5.45420048 30.05128701 5.39111328 39.31054688 C5.37481093 42.15802417 5.3911863 45.00412372 5.41015625 47.8515625 C5.40817684 49.69531558 5.40433944 51.53906781 5.3984375 53.3828125 C5.40451019 54.21732941 5.41058289 55.05184631 5.4168396 55.91165161 C5.34783264 61.74137987 4.13352563 66.58300428 2 72 C0.71396511 67.66904408 1.36964321 63.7838507 1.9375 59.375 C3.73598304 43.75478641 3.01695897 28.78537971 1.24365234 13.19384766 C0.91293723 10.21608609 0.63933531 7.23430731 0.375 4.25 C0.30023437 3.40953125 0.22546875 2.5690625 0.1484375 1.703125 C0.09945312 1.14109375 0.05046875 0.5790625 0 0 Z " fill="#FEEDD6" transform="translate(896,295)"/>
<path d="M0 0 C7.04239216 8.13316144 5.29048355 22.21661131 5.20581055 32.45214844 C5.18719306 34.78851905 5.185304 37.12449939 5.18554688 39.4609375 C5.180643 40.94792012 5.17481969 42.43490007 5.16796875 43.921875 C5.16685593 44.6196405 5.1657431 45.31740601 5.16459656 46.03631592 C5.11617343 50.88382657 5.11617343 50.88382657 4 52 C3.76712992 53.68183948 3.58735834 55.3712416 3.4375 57.0625 C3.35371094 57.98160156 3.26992188 58.90070313 3.18359375 59.84765625 C3.12300781 60.55792969 3.06242188 61.26820313 3 62 C2.34 62 1.68 62 1 62 C0.67 62.99 0.34 63.98 0 65 C0.48828125 61.09375 0.9765625 57.1875 1.46484375 53.28125 C1.55266113 52.56912354 1.64047852 51.85699707 1.73095703 51.12329102 C1.98738979 49.09951993 2.2684568 47.07891553 2.55078125 45.05859375 C4.11630841 32.40714828 3.2447004 19.83972699 0.65625 7.40625 C0 4 0 4 0 0 Z " fill="#D7742D" transform="translate(810,370)"/>
<path d="M0 0 C0.66 0.33 1.32 0.66 2 1 C3.50270513 8.58875048 3.15932457 16.67031726 3.125 24.375 C3.12161621 25.47481201 3.11823242 26.57462402 3.11474609 27.70776367 C3.04053769 39.35762064 2.12924905 50.52686192 0 62 C-2.19155578 58.71266633 -2.21487186 58.30727447 -1.75 54.625 C-1.64300781 53.72652344 -1.53601563 52.82804687 -1.42578125 51.90234375 C-1.14570929 49.99322935 -0.83144085 48.0887667 -0.48046875 46.19140625 C2.26585019 30.99774247 1.31757918 15.31685797 0 0 Z " fill="#DA7A36" transform="translate(857,311)"/>
<path d="M0 0 C0.66 0 1.32 0 2 0 C1.83628906 1.29679687 1.67257812 2.59359375 1.50390625 3.9296875 C0.73237206 11.64502941 0.89338866 19.38137916 0.9375 27.125 C0.9425265 28.66926938 0.94708736 30.21354034 0.95117188 31.7578125 C0.96208303 35.50524187 0.97928386 39.25261049 1 43 C0.5359375 42.0409375 0.5359375 42.0409375 0.0625 41.0625 C-0.8345163 39.06389179 -0.8345163 39.06389179 -2 38 C-2.10003289 35.86646826 -2.13081048 33.72962458 -2.1328125 31.59375 C-2.13410156 30.29308594 -2.13539063 28.99242187 -2.13671875 27.65234375 C-2.13462402 26.97155762 -2.1325293 26.29077148 -2.13037109 25.58935547 C-2.1250224 23.50871485 -2.1303168 21.42829011 -2.13671875 19.34765625 C-2.13542969 18.04699219 -2.13414062 16.74632812 -2.1328125 15.40625 C-2.13168457 14.20291016 -2.13055664 12.99957031 -2.12939453 11.75976562 C-2 9 -2 9 -1 8 C-0.76924918 6.65252916 -0.58846937 5.29622435 -0.4375 3.9375 C-0.293125 2.638125 -0.14875 1.33875 0 0 Z " fill="#D87D38" transform="translate(595,378)"/>
<path d="M0 0 C1.79206547 0.14084796 3.58364917 0.28783701 5.375 0.4375 C6.87160156 0.55931641 6.87160156 0.55931641 8.3984375 0.68359375 C11 1 11 1 13 2 C15.40560273 2.15608023 17.78702772 2.25804458 20.1953125 2.31640625 C21.25647781 2.3475779 21.25647781 2.3475779 22.33908081 2.37937927 C24.60095425 2.44481078 26.86294462 2.50372974 29.125 2.5625 C30.65756422 2.60569133 32.19011657 2.64930582 33.72265625 2.69335938 C37.48165073 2.80048555 41.24076292 2.9017709 45 3 C45 3.33 45 3.66 45 4 C32.24643138 6.71725517 15.22506455 7.01895306 3 2 C2.01 1.34 1.02 0.68 0 0 Z " fill="#FEEED6" transform="translate(677,384)"/>
<path d="M0 0 C0.33 0.66 0.66 1.32 1 2 C0.69835937 2.64839844 0.39671875 3.29679688 0.0859375 3.96484375 C-1.52488178 8.46702568 -1.38177673 12.81440671 -1.375 17.5625 C-1.37556396 18.54597412 -1.37612793 19.52944824 -1.37670898 20.54272461 C-1.27666028 27.16507434 -0.54761612 32.52270709 2.02734375 38.66015625 C3.04046626 41.09734653 3.56032603 43.40360953 4 46 C-2.71742144 37.98243248 -4.4718411 27.20932335 -4.5625 17.0625 C-4.57692139 16.28253662 -4.59134277 15.50257324 -4.60620117 14.69897461 C-4.50489128 8.87210189 -2.88798903 5.0468039 0 0 Z " fill="#D87731" transform="translate(723,242)"/>
<path d="M0 0 C0.33 0 0.66 0 1 0 C1.24379512 5.82748991 0.39582567 11.02073379 -0.9375 16.6875 C-1.14914795 17.59072998 -1.3607959 18.49395996 -1.57885742 19.42456055 C-4.1177457 29.4972005 -8.39110778 38.7264689 -13 48 C-14.13768092 44.1864652 -13.65749525 42.4233224 -12.0625 38.75 C-11.68222656 37.85796875 -11.30195312 36.9659375 -10.91015625 36.046875 C-10.60980469 35.37140625 -10.30945313 34.6959375 -10 34 C-9.34 34 -8.68 34 -8 34 C-7.87367188 33.1440625 -7.74734375 32.288125 -7.6171875 31.40625 C-7.00050676 28.00279681 -6.12275015 24.81036485 -5.125 21.5 C-3.04835524 14.39090224 -1.45648881 7.26037605 0 0 Z " fill="#FDEBD3" transform="translate(811,419)"/>
<path d="M0 0 C0.33 0 0.66 0 1 0 C1.46425749 12.07069465 -1.6924487 22.93162578 -5.625 34.25 C-6.25535156 36.10044922 -6.25535156 36.10044922 -6.8984375 37.98828125 C-7.92402976 40.99513129 -8.95797485 43.99881385 -10 47 C-11.09898702 43.70303895 -10.87124444 42.59505097 -10.0625 39.3125 C-9.86785156 38.50425781 -9.67320312 37.69601562 -9.47265625 36.86328125 C-9.31667969 36.24839844 -9.16070313 35.63351562 -9 35 C-8.34 35 -7.68 35 -7 35 C-6.34 30.38 -5.68 25.76 -5 21 C-4.34 21 -3.68 21 -3 21 C-3.020625 19.700625 -3.04125 18.40125 -3.0625 17.0625 C-3.08399454 15.70834367 -3.07148199 14.35243917 -3 13 C-2.67 12.67 -2.34 12.34 -2 12 C-1.79160985 10.35892758 -1.63248275 8.71143707 -1.5 7.0625 C-1.10977702 2.21955403 -1.10977702 2.21955403 0 0 Z " fill="#DB7A33" transform="translate(896,359)"/>
<path d="M0 0 C0.99 0.33 1.98 0.66 3 1 C-6.0365257 8.2685098 -14.41496802 9.3545788 -25.77734375 9.0078125 C-29.01749654 8.82887292 -29.01749654 8.82887292 -32 10 C-31.34 8.68 -30.68 7.36 -30 6 C-22.74 6 -15.48 6 -8 6 C-8 5.34 -8 4.68 -8 4 C-6.68 4 -5.36 4 -4 4 C-4 3.34 -4 2.68 -4 2 C-2.68 2 -1.36 2 0 2 C0 1.34 0 0.68 0 0 Z " fill="#DD7F38" transform="translate(653,311)"/>
<path d="M0 0 C0.33 0 0.66 0 1 0 C1 2.64 1 5.28 1 8 C0.34 8 -0.32 8 -1 8 C-0.96519531 8.60328125 -0.93039062 9.2065625 -0.89453125 9.828125 C-0.86746094 10.62734375 -0.84039063 11.4265625 -0.8125 12.25 C-0.77769531 13.03890625 -0.74289062 13.8278125 -0.70703125 14.640625 C-1.06902544 17.55588489 -2.20271823 18.71780805 -4 21 C-4.84721074 23.33623278 -4.84721074 23.33623278 -5.4375 25.8125 C-6.71376013 30.39481696 -8.46874495 33.98490578 -11 38 C-11.66 38 -12.32 38 -13 38 C-11.6000384 33.62760808 -9.95713922 29.42249412 -8.1875 25.1875 C-4.8184665 16.9737838 -2.3645633 8.54800096 0 0 Z " fill="#DF8746" transform="translate(854,371)"/>
<path d="M0 0 C0.72963959 0.00141495 1.45927917 0.0028299 2.21102905 0.00428772 C4.54437335 0.00989094 6.87762214 0.0224439 9.2109375 0.03515625 C10.79166528 0.04017084 12.37239457 0.04473382 13.953125 0.04882812 C17.83076604 0.05986141 21.70833557 0.07712814 25.5859375 0.09765625 C25.5859375 0.42765625 25.5859375 0.75765625 25.5859375 1.09765625 C24.69793457 1.11953003 24.69793457 1.11953003 23.79199219 1.1418457 C12.0831318 1.46107571 0.61705107 2.10580791 -10.94042969 4.08129883 C-15.16099868 4.79996744 -19.109977 5.2560466 -23.4140625 5.09765625 C-20.36008313 2.44140442 -18.31027466 1.700725 -14.2890625 1.47265625 C-9.32904435 1.163575 -5.0607757 -0.0367107 0 0 Z " fill="#D7762C" transform="translate(691.4140625,178.90234375)"/>
<path d="M0 0 C0.33 0 0.66 0 1 0 C1.01981934 0.88671387 1.03963867 1.77342773 1.06005859 2.68701172 C1.13884247 6.02335664 1.22555244 9.35931065 1.31738281 12.6953125 C1.35531893 14.13045513 1.39022862 15.56568146 1.421875 17.00097656 C1.58772442 24.43310376 1.89016809 31.58171638 3.56787109 38.85888672 C4.23476394 42.16320891 4.19108081 45.25487865 4.125 48.625 C4.10695313 49.83414063 4.08890625 51.04328125 4.0703125 52.2890625 C4.04710937 53.18367188 4.02390625 54.07828125 4 55 C3.67 55 3.34 55 3 55 C-0.30321226 36.6160508 -0.33038711 18.59994725 0 0 Z " fill="#D57734" transform="translate(509,317)"/>
<path d="M0 0 C6.67856741 1.3303112 12.8422928 3.23000237 19.1875 5.6875 C20.09717529 6.03619141 21.00685059 6.38488281 21.9440918 6.74414062 C29.54899716 9.71282511 36.81113447 13.13371938 44 17 C40.28272326 18.13583456 38.52948291 17.66670026 35 16 C35 15.34 35 14.68 35 14 C34.43023438 13.87496094 33.86046875 13.74992188 33.2734375 13.62109375 C30.91046102 12.97553832 28.84469917 12.0944654 26.625 11.0625 C22.55203239 9.16993731 18.41030085 7.76614035 14.1328125 6.40649414 C12.1496024 5.77540554 10.16855913 5.1378044 8.1875 4.5 C7.1675293 4.18095703 7.1675293 4.18095703 6.12695312 3.85546875 C4.39850043 3.29367854 2.69626339 2.65256989 1 2 C0.67 1.34 0.34 0.68 0 0 Z " fill="#D97E3A" transform="translate(757,147)"/>
<path d="M0 0 C0.66 0 1.32 0 2 0 C5.92635195 8.59448308 6.47912791 16.01324985 6.1875 25.375 C6.1351122 27.84105998 6.0867715 30.30721009 6.04296875 32.7734375 C6.01227295 33.85028809 5.98157715 34.92713867 5.94995117 36.03662109 C5.99715375 38.83147401 6.35399999 41.28736472 7 44 C3.76657439 40.90715811 3.02348347 39.73972928 2.875 35.0625 C2.86466325 32.29742066 3.10297559 30.69107322 4 28 C4.69344165 19.46271022 3.95430401 12.32576181 0.875 4.328125 C0 2 0 2 0 0 Z " fill="#FEF4E1" transform="translate(797,264)"/>
<path d="M0 0 C-1.85977779 1.99637164 -3.38202448 2.93302164 -6.10839844 3.22851562 C-9.5951524 3.2814085 -13.07262742 3.2721908 -16.55859375 3.17578125 C-21.61379411 3.18787286 -21.61379411 3.18787286 -25.93457031 5.53710938 C-27.98034374 7.8943289 -29.60498045 10.20996091 -31 13 C-31.66 13 -32.32 13 -33 13 C-31.50948318 8.39294801 -29.21457741 5.53603516 -26 2 C-22.10983381 0.05491691 -17.16564927 1.05369768 -12.89453125 1.16015625 C-9.86120322 1.03541558 -7.93563578 0.79742121 -5.13671875 -0.06640625 C-2 -1 -2 -1 0 0 Z " fill="#FEF0DA" transform="translate(648,318)"/>
<path d="M0 0 C0.33 0.99 0.66 1.98 1 3 C-0.94830271 6.3399475 -2.98447394 9.53275141 -6 12 C-6.66 12 -7.32 12 -8 12 C-8.20625 13.051875 -8.4125 14.10375 -8.625 15.1875 C-9.85689805 19.64407236 -12.31781963 21.35843582 -16 24 C-16.66 23.67 -17.32 23.34 -18 23 C-17.28714844 22.09378906 -16.57429687 21.18757813 -15.83984375 20.25390625 C-10.54192526 13.51648693 -5.25089488 6.77419203 0 0 Z " fill="#DD7C34" transform="translate(678,259)"/>
<path d="M0 0 C0.33 0 0.66 0 1 0 C1 9.9 1 19.8 1 30 C-1.45974976 27.54025024 -2.57288662 26.23122631 -4.04296875 23.27734375 C-4.39423828 22.57416016 -4.74550781 21.87097656 -5.10742188 21.14648438 C-5.64206055 20.05303711 -5.64206055 20.05303711 -6.1875 18.9375 C-6.55552734 18.20466797 -6.92355469 17.47183594 -7.30273438 16.71679688 C-10 11.26721939 -10 11.26721939 -10 9 C-9.34 9 -8.68 9 -8 9 C-5.69 13.95 -3.38 18.9 -1 24 C-0.67 16.08 -0.34 8.16 0 0 Z " fill="#FEEAD1" transform="translate(573,389)"/>
<path d="M0 0 C0.66 0 1.32 0 2 0 C0.75342978 7.09189642 -1.06347826 13.80999624 -3.375 20.625 C-3.66632812 21.51445312 -3.95765625 22.40390625 -4.2578125 23.3203125 C-6.10043504 28.8158534 -8.28884191 33.87626951 -11 39 C-11.33 39 -11.66 39 -12 39 C-12.20140476 35.37471432 -11.85776765 33.13498292 -10 30 C-9.34 30 -8.68 30 -8 30 C-8 28.35 -8 26.7 -8 25 C-7.34 25 -6.68 25 -6 25 C-5.7525 23.845 -5.505 22.69 -5.25 21.5 C-3.6543635 14.2965106 -1.80786598 7.1524795 0 0 Z " fill="#FEF1DB" transform="translate(853,368)"/>
<path d="M0 0 C0.33 0 0.66 0 1 0 C1 2.64 1 5.28 1 8 C0.34 8 -0.32 8 -1 8 C-0.98839844 8.71027344 -0.97679687 9.42054688 -0.96484375 10.15234375 C-0.95130859 11.53099609 -0.95130859 11.53099609 -0.9375 12.9375 C-0.92589844 13.85402344 -0.91429687 14.77054687 -0.90234375 15.71484375 C-1 18 -1 18 -2 19 C-2.24492203 21.74403381 -2.38385297 24.4869967 -2.5234375 27.23828125 C-3.04911413 30.28462043 -3.97002093 31.71491661 -6 34 C-6.21169616 27.85375472 -5.47244156 22.42453645 -4.125 16.4375 C-3.95097656 15.62603516 -3.77695312 14.81457031 -3.59765625 13.97851562 C-2.569451 9.26019599 -1.3789963 4.62771281 0 0 Z " fill="#DD803C" transform="translate(516,280)"/>
<path d="M0 0 C0.66 0.33 1.32 0.66 2 1 C-2.75 6.875 -2.75 6.875 -5 8 C-6.74199701 11.58646443 -7.45119974 15.06693147 -8 19 C-6.02 19 -4.04 19 -2 19 C-2 18.34 -2 17.68 -2 17 C-1.34 17 -0.68 17 0 17 C-0.6875 18.9375 -0.6875 18.9375 -2 21 C-4.5 21.875 -4.5 21.875 -7 22 C-9.33760576 19.66239424 -9.34295127 19.06741017 -9.4375 15.875 C-9.32610319 10.56222906 -7.3438031 7.03529779 -4 3 C-1.6875 1 -1.6875 1 0 0 Z " fill="#D87933" transform="translate(631,348)"/>
<path d="M0 0 C2.42578125 1.66796875 2.42578125 1.66796875 4 3 C2.35 3 0.7 3 -1 3 C-1 2.34 -1 1.68 -1 1 C-1.73476563 0.86722656 -2.46953125 0.73445312 -3.2265625 0.59765625 C-5.73558271 0.05698006 -7.96870553 -0.68863516 -10.375 -1.5625 C-17.144814 -3.67550255 -23.99105095 -3.25232217 -31 -3 C-31 -2.34 -31 -1.68 -31 -1 C-33.31 -0.67 -35.62 -0.34 -38 0 C-28.93148485 -10.50038597 -10.7717884 -4.75029178 0 0 Z " fill="#D78141" transform="translate(768,236)"/>
<path d="M0 0 C1.97956441 0.14033111 3.95865141 0.2874123 5.9375 0.4375 C7.03964844 0.51871094 8.14179687 0.59992187 9.27734375 0.68359375 C12 1 12 1 13 2 C15.84335048 2.09986975 18.65697163 2.13877881 21.5 2.125 C22.29792969 2.12886719 23.09585938 2.13273438 23.91796875 2.13671875 C27.7683932 2.5089961 27.7683932 2.5089961 31 1 C32.51928038 0.92820036 34.04167482 0.91607993 35.5625 0.9375 C36.38878906 0.94652344 37.21507812 0.95554687 38.06640625 0.96484375 C38.70449219 0.97644531 39.34257813 0.98804688 40 1 C30.02695887 6.34270061 14.8110159 5.44788661 4.1875 2.5 C2.78155812 2.02917295 1.37973489 1.54284651 0 1 C0 0.67 0 0.34 0 0 Z " fill="#FEF0D8" transform="translate(734,554)"/>
<path d="M0 0 C1.10253906 3.78955078 1.10253906 3.78955078 0.1796875 5.68359375 C-0.25085938 6.26238281 -0.68140625 6.84117187 -1.125 7.4375 C-4.29125497 12.08134062 -5.97791384 17.04618441 -7.7890625 22.33984375 C-8.18867187 23.21769531 -8.58828125 24.09554688 -9 25 C-9.99 25.33 -10.98 25.66 -12 26 C-10.08321013 19.56404235 -7.54251139 13.81539951 -4.3125 7.9375 C-3.89677734 7.16728516 -3.48105469 6.39707031 -3.05273438 5.60351562 C-2.0415352 3.732216 -1.02168617 1.86559466 0 0 Z " fill="#DC7D37" transform="translate(534,238)"/>
<path d="M0 0 C-10 3.33333333 -20 6.66666667 -30 10 C-30 9.34 -30 8.68 -30 8 C-29.01 8 -28.02 8 -27 8 C-27 7.34 -27 6.68 -27 6 C-23.38026598 4.68373308 -20.90432869 4 -17 4 C-17 3.34 -17 2.68 -17 2 C-15.35 2 -13.7 2 -12 2 C-12 1.34 -12 0.68 -12 0 C-4.265625 -1.16015625 -4.265625 -1.16015625 0 0 Z " fill="#DA7F39" transform="translate(668,185)"/>
<path d="M0 0 C0 3 0 3 -1.53125 4.82421875 C-2.50578125 5.74654297 -2.50578125 5.74654297 -3.5 6.6875 C-4.1496875 7.31011719 -4.799375 7.93273437 -5.46875 8.57421875 C-5.9740625 9.04472656 -6.479375 9.51523437 -7 10 C-7.33 8.68 -7.66 7.36 -8 6 C-8.33 6.33 -8.66 6.66 -9 7 C-11.67058851 7.14115161 -14.32432238 7.04247107 -17 7 C-13.52295239 5.15819755 -9.92565423 3.77174861 -6.25 2.375 C-5.07953125 1.92898438 -3.9090625 1.48296875 -2.703125 1.0234375 C-1.36507812 0.51683594 -1.36507812 0.51683594 0 0 Z " fill="#D98548" transform="translate(787,550)"/>
<path d="M0 0 C0.33 0 0.66 0 1 0 C1 11.55 1 23.1 1 35 C-0.32 34.67 -1.64 34.34 -3 34 C-3.33 32.02 -3.66 30.04 -4 28 C-3.01 29.32 -2.02 30.64 -1 32 C-0.67 21.44 -0.34 10.88 0 0 Z " fill="#D87C39" transform="translate(574,386)"/>
<path d="M0 0 C3.43596885 -0.32212208 5.28848028 0.11998737 8.53125 1.46875 C13.48086173 3.38434493 18.23925366 3.55368741 23.5 3.6875 C24.4178125 3.72166016 25.335625 3.75582031 26.28125 3.79101562 C28.5207109 3.87266264 30.7598215 3.94207538 33 4 C33 4.66 33 5.32 33 6 C9.00483611 5.63167408 9.00483611 5.63167408 0 1 C0 0.67 0 0.34 0 0 Z " fill="#D97D38" transform="translate(751,311)"/>
<path d="M0 0 C4.1693255 2.19515724 6.69721354 4.70269052 9.625 8.375 C10.38039063 9.31085938 11.13578125 10.24671875 11.9140625 11.2109375 C17 18.01123596 17 18.01123596 17 21 C16.34 21 15.68 21 15 21 C14.731875 20.443125 14.46375 19.88625 14.1875 19.3125 C11.35573757 13.79801526 8.14628825 9.81222308 3.57421875 5.62890625 C2 4 2 4 2 2 C1.34 2 0.68 2 0 2 C0 1.34 0 0.68 0 0 Z " fill="#D97F3C" transform="translate(780,245)"/>
<path d="M0 0 C5.13083998 -0.37542732 8.38441799 0.81367168 13 3 C14.19625 3.495 15.3925 3.99 16.625 4.5 C19.58848581 5.8171048 22.26840791 7.26171412 25 9 C23 10 23 10 20.98461914 9.41088867 C19.77213501 8.91939331 19.77213501 8.91939331 18.53515625 8.41796875 C17.65279297 8.06283203 16.77042969 7.70769531 15.86132812 7.34179688 C14.93771484 6.96087891 14.01410156 6.57996094 13.0625 6.1875 C12.14275391 5.81818359 11.22300781 5.44886719 10.27539062 5.06835938 C6.59939583 3.5749027 3.31312215 2.2087481 0 0 Z " fill="#DA803D" transform="translate(750,187)"/>
<path d="M0 0 C3.25414642 3.75632951 4.89627092 8.07840521 6.75 12.625 C7.07871094 13.40101563 7.40742187 14.17703125 7.74609375 14.9765625 C8.05160156 15.7190625 8.35710938 16.4615625 8.671875 17.2265625 C8.9512793 17.90283691 9.23068359 18.57911133 9.51855469 19.27587891 C10 21 10 21 9 23 C6.39179779 18.68297566 4.33659187 14.5396376 2.66015625 9.78515625 C2.00099333 7.88284203 2.00099333 7.88284203 0.8125 5.75 C0 4 0 4 0 0 Z " fill="#DB8341" transform="translate(878,246)"/>
<path d="M0 0 C0.66 0 1.32 0 2 0 C1.86722656 1.02738281 1.73445312 2.05476563 1.59765625 3.11328125 C0.58056202 11.06545843 -0.35648972 19.00692489 -1 27 C-1.33 27 -1.66 27 -2 27 C-2.02683987 24.02077407 -2.04676037 21.04178705 -2.0625 18.0625 C-2.07087891 17.21236328 -2.07925781 16.36222656 -2.08789062 15.48632812 C-2.09111328 14.67744141 -2.09433594 13.86855469 -2.09765625 13.03515625 C-2.10289307 12.2862915 -2.10812988 11.53742676 -2.11352539 10.76586914 C-2 9 -2 9 -1 8 C-0.76924918 6.65252916 -0.58846937 5.29622435 -0.4375 3.9375 C-0.293125 2.638125 -0.14875 1.33875 0 0 Z " fill="#DC772A" transform="translate(595,378)"/>
<path d="M0 0 C0.33 0.66 0.66 1.32 1 2 C-0.2739589 4.03833424 -1.61061923 6.03852126 -3 8 C-3.66 8 -4.32 8 -5 8 C-5.2475 8.886875 -5.495 9.77375 -5.75 10.6875 C-7.04964625 14.13156256 -8.48729227 16.33024803 -11 19 C-11.66 19 -12.32 19 -13 19 C-11.61864431 14.9990786 -9.75892559 12.18626603 -7.0625 8.9375 C-4.64156747 6.00070521 -2.25778826 3.06464676 0 0 Z " fill="#DB7E38" transform="translate(554,209)"/>
<path d="M0 0 C0.6953125 1.7734375 0.6953125 1.7734375 1 4 C-1.90226521 8.2722786 -5.98715141 11.63285948 -11 13 C-7.61227103 8.30840284 -4.21814817 3.9700218 0 0 Z " fill="#DC7931" transform="translate(670,235)"/>
<path d="M0 0 C-2.76565382 0.92188461 -4.38283702 1.11785222 -7.23046875 1.09765625 C-8.03291016 1.09443359 -8.83535156 1.09121094 -9.66210938 1.08789062 C-10.49548828 1.07951172 -11.32886719 1.07113281 -12.1875 1.0625 C-13.03248047 1.05798828 -13.87746094 1.05347656 -14.74804688 1.04882812 C-16.83206155 1.03705403 -18.91603977 1.0191189 -21 1 C-16.03887328 -3.96112672 -5.83187767 -3.11033476 0 0 Z " fill="#DC7C35" transform="translate(682,428)"/>
<path d="M0 0 C0 3.7185142 -0.85912168 4.31804606 -3.3125 7 C-3.92738281 7.680625 -4.54226563 8.36125 -5.17578125 9.0625 C-6.75544728 10.74026092 -8.35810926 12.38336911 -10 14 C-10.99 13.67 -11.98 13.34 -13 13 C-8.71 8.71 -4.42 4.42 0 0 Z " fill="#DA7329" transform="translate(640,235)"/>
<path d="M0 0 C2 2 2 2 2.265625 3.875 C2.26046875 4.57625 2.2553125 5.2775 2.25 6 C2.25515625 6.70125 2.2603125 7.4025 2.265625 8.125 C2 10 2 10 0 12 C-3.125 11.625 -3.125 11.625 -6 11 C-6 10.34 -6 9.68 -6 9 C-4.02 9 -2.04 9 0 9 C0 6.03 0 3.06 0 0 Z " fill="#D98443" transform="translate(785,358)"/>
<path d="M0 0 C1.07980476 3.21750519 0.97733906 4.82122732 -0.43359375 7.890625 C-0.75263672 8.59960938 -1.07167969 9.30859375 -1.40039062 10.0390625 C-1.74263672 10.76867187 -2.08488281 11.49828125 -2.4375 12.25 C-2.77587891 12.99507813 -3.11425781 13.74015625 -3.46289062 14.5078125 C-4.29826304 16.34327865 -5.14777967 18.17229555 -6 20 C-7.13768092 16.1864652 -6.65749525 14.4233224 -5.0625 10.75 C-4.68222656 9.85796875 -4.30195312 8.9659375 -3.91015625 8.046875 C-3.60980469 7.37140625 -3.30945313 6.6959375 -3 6 C-2.34 6 -1.68 6 -1 6 C-0.67 4.02 -0.34 2.04 0 0 Z " fill="#FEF4E1" transform="translate(804,447)"/>
<path d="M0 0 C2.475 0.495 2.475 0.495 5 1 C5.0825 1.61875 5.165 2.2375 5.25 2.875 C5.77874358 5.10716326 5.77874358 5.10716326 7.625 5.9375 C8.40875 6.288125 9.1925 6.63875 10 7 C12.37708188 8.60682573 14.68929789 10.2994271 17 12 C16.01 12.495 16.01 12.495 15 13 C13.24378329 11.77973218 11.49528005 10.54835931 9.75 9.3125 C8.77546875 8.62800781 7.8009375 7.94351562 6.796875 7.23828125 C4.05359194 5.04288852 2.07498563 2.82099237 0 0 Z " fill="#D87C39" transform="translate(734,298)"/>
<path d="M0 0 C1.66611905 -0.042721 3.33382885 -0.04063832 5 0 C6 1 6 1 6.3125 4.6875 C6.27956934 9.25662853 4.87350853 11.51695936 2 15 C1.67 15 1.34 15 1 15 C1 13.35 1 11.7 1 10 C1.66 10 2.32 10 3 10 C3 9.34 3 8.68 3 8 C3.66 8 4.32 8 5 8 C5 6.02 5 4.04 5 2 C3.02 2 1.04 2 -1 2 C-0.67 1.34 -0.34 0.68 0 0 Z " fill="#D67B38" transform="translate(688,247)"/>
<path d="M0 0 C0.33 0 0.66 0 1 0 C1.69918305 2.58067563 2.38461049 5.16372847 3.0625 7.75 C3.26166016 8.47960937 3.46082031 9.20921875 3.66601562 9.9609375 C4.63744407 13.71031044 5.15449387 16.30274238 4 20 C4 19.34 4 18.68 4 18 C3.34 18 2.68 18 2 18 C2 15.03 2 12.06 2 9 C1.34 9 0.68 9 0 9 C0 6.03 0 3.06 0 0 Z " fill="#FBE2C8" transform="translate(511,367)"/>
<path d="M0 0 C2.20324589 3.30486883 2.74426937 5.76089514 3.5625 9.625 C4.11685769 13.62999584 4.11685769 13.62999584 6 17 C6.04063832 18.66617115 6.042721 20.33388095 6 22 C3.31796173 18.85968628 2.27399039 16.12357907 1.3125 12.125 C1.06113281 11.11695313 0.80976562 10.10890625 0.55078125 9.0703125 C-0.00403668 5.97749767 -0.09825559 3.13482106 0 0 Z " fill="#FCE9D0" transform="translate(553,365)"/>
<path d="M0 0 C-1.61674681 3.42946293 -3.57597677 6.56263052 -5.625 9.75 C-6.57246094 11.22726563 -6.57246094 11.22726563 -7.5390625 12.734375 C-8.02117188 13.48203125 -8.50328125 14.2296875 -9 15 C-9.33 13.68 -9.66 12.36 -10 11 C-9.34 11 -8.68 11 -8 11 C-8 9.68 -8 8.36 -8 7 C-7.34 7 -6.68 7 -6 7 C-6 6.34 -6 5.68 -6 5 C-5.34 5 -4.68 5 -4 5 C-4 3.68 -4 2.36 -4 1 C-2 0 -2 0 0 0 Z " fill="#DD7D36" transform="translate(581,241)"/>
<path d="M0 0 C0.33 0.66 0.66 1.32 1 2 C-3.93654267 9.5273523 -3.93654267 9.5273523 -8.375 11.5 C-9.24125 11.665 -10.1075 11.83 -11 12 C-7.49102731 7.81576108 -3.91939465 3.80411834 0 0 Z " fill="#DB7D38" transform="translate(652,223)"/>
<path d="M0 0 C0 0.66 0 1.32 0 2 C-0.99 2.33 -1.98 2.66 -3 3 C-4.33827304 4.66270287 -5.67189785 6.32916181 -7 8 C-7.66 8 -8.32 8 -9 8 C-9.103125 8.639375 -9.20625 9.27875 -9.3125 9.9375 C-9.539375 10.618125 -9.76625 11.29875 -10 12 C-10.99 12.33 -11.98 12.66 -13 13 C-11.56179563 7.72658399 -7.9961885 4.50608991 -4 1 C-2 0 -2 0 0 0 Z " fill="#DA7A32" transform="translate(661,429)"/>
<path d="M0 0 C0.33 0.99 0.66 1.98 1 3 C-2.63 6.96 -6.26 10.92 -10 15 C-10.66 14.67 -11.32 14.34 -12 14 C-8.04 9.38 -4.08 4.76 0 0 Z " fill="#D97C39" transform="translate(648,260)"/>
<path d="M0 0 C0 4.25866406 -1.21704663 6.17099055 -4.125 9.25 C-4.74375 9.8275 -5.3625 10.405 -6 11 C-6.99 10.67 -7.98 10.34 -9 10 C-6.03 6.7 -3.06 3.4 0 0 Z " fill="#FCEBD5" transform="translate(596,224)"/>
<path d="M0 0 C1.23492188 -0.01417969 2.46984375 -0.02835937 3.7421875 -0.04296875 C6.86586712 0.16984545 8.52561596 0.53512774 11.125 2.1875 C11.125 2.8475 11.125 3.5075 11.125 4.1875 C10.320625 3.8575 9.51625 3.5275 8.6875 3.1875 C2.84648853 1.54791783 -2.98974595 1.66872476 -8.875 3.1875 C-8.875 2.5275 -8.875 1.8675 -8.875 1.1875 C-5.9336446 -0.2831777 -3.27272595 0.01701001 0 0 Z " fill="#FDECD6" transform="translate(736.875,456.8125)"/>
<path d="M0 0 C0.97582031 0.20367187 1.95164062 0.40734375 2.95703125 0.6171875 C3.69308594 0.78476562 4.42914062 0.95234375 5.1875 1.125 C5.1875 1.785 5.1875 2.445 5.1875 3.125 C4.46304688 3.01800781 3.73859375 2.91101563 2.9921875 2.80078125 C-2.85408831 2.07584305 -6.70635789 1.67490398 -11.8125 5.125 C-11.625 3.25 -11.625 3.25 -10.8125 1.125 C-6.87549409 -1.01223178 -4.31528557 -0.93584506 0 0 Z " fill="#FCEAD1" transform="translate(768.8125,343.875)"/>
<path d="M0 0 C1.37562854 1.28965176 2.70766393 2.62689293 4 4 C4 4.66 4 5.32 4 6 C4.66 6.33 5.32 6.66 6 7 C3 7 3 7 1.3125 5.5 C0.879375 5.005 0.44625 4.51 0 4 C-0.309375 4.61875 -0.61875 5.2375 -0.9375 5.875 C-1.625 7.25 -2.3125 8.625 -3 10 C-3.66 9.67 -4.32 9.34 -5 9 C-3.35 6.03 -1.7 3.06 0 0 Z " fill="#FCE5CA" transform="translate(775,363)"/>
<path d="M0 0 C1.32 0 2.64 0 4 0 C7.24201565 6.07877934 7.33278764 11.18401613 7 18 C6.67 18 6.34 18 6 18 C5.97421875 17.34773438 5.9484375 16.69546875 5.921875 16.0234375 C5.53594076 10.07654177 4.72551158 6.65688947 1 2 C0.67 1.34 0.34 0.68 0 0 Z " fill="#FDE8D1" transform="translate(750,463)"/>
<path d="M0 0 C1.91385532 2.87078299 2.96432952 5.33411656 4.125 8.5625 C4.47820313 9.53316406 4.83140625 10.50382812 5.1953125 11.50390625 C6 14 6 14 6 16 C5.34 16 4.68 16 4 16 C2.14223235 12.86501708 1.79859524 10.62528568 2 7 C1.34 7 0.68 7 0 7 C0 4.69 0 2.38 0 0 Z " fill="#DB823F" transform="translate(557,384)"/>
<path d="M0 0 C2.34393666 3.66240103 2.07472575 6.74063226 2 11 C2.28520405 12.67557379 2.59955696 14.34817245 3 16 C-0.23342561 12.90715811 -0.97651653 11.73972928 -1.125 7.0625 C-1.13533675 4.29742066 -0.89702441 2.69107322 0 0 Z " fill="#FDEAD3" transform="translate(801,292)"/>
<path d="M0 0 C1.52730554 4.93937111 0.0005063 8.83223636 -2.125 13.4375 C-2.41375 13.953125 -2.7025 14.46875 -3 15 C-4.43410153 11.21180727 -3.51009497 8.93478721 -2.0625 5.25 C-1.49208984 3.77273438 -1.49208984 3.77273438 -0.91015625 2.265625 C-0.60980469 1.51796875 -0.30945313 0.7703125 0 0 Z " fill="#DC813D" transform="translate(521,265)"/>
<path d="M0 0 C2.375 0.75 2.375 0.75 3.375 1.75 C3.0625 5.25 3.0625 5.25 2.375 8.75 C1.385 9.245 1.385 9.245 0.375 9.75 C0.375 8.43 0.375 7.11 0.375 5.75 C1.035 5.75 1.695 5.75 2.375 5.75 C2.045 4.76 1.715 3.77 1.375 2.75 C-0.935 2.75 -3.245 2.75 -5.625 2.75 C-3.73358522 0.26129634 -3.21105313 -0.30581458 0 0 Z " fill="#D67B38" transform="translate(658.625,220.25)"/>
<path d="M0 0 C0.99 0.33 1.98 0.66 3 1 C1.85845641 2.83600745 0.71165684 4.66874805 -0.4375 6.5 C-1.07558594 7.5209375 -1.71367188 8.541875 -2.37109375 9.59375 C-2.90863281 10.3878125 -3.44617188 11.181875 -4 12 C-4.33 12 -4.66 12 -5 12 C-5 10.35 -5 8.7 -5 7 C-4.34 7 -3.68 7 -3 7 C-3 6.34 -3 5.68 -3 5 C-2.34 5 -1.68 5 -1 5 C-0.67 3.35 -0.34 1.7 0 0 Z " fill="#DE7C32" transform="translate(852,465)"/>
<path d="M0 0 C-1.07401108 2.91517292 -1.77810176 4.77810176 -4 7 C-5.98821313 7.39764263 -7.98944339 7.73775349 -10 8 C-8.33333333 6.33333333 -6.66666667 4.66666667 -5 3 C-4.443125 2.401875 -3.88625 1.80375 -3.3125 1.1875 C-2 0 -2 0 0 0 Z " fill="#DF7B31" transform="translate(582,183)"/>
<path d="M0 0 C1 2 1 2 0.3125 4.3125 C-1.13611508 7.27871183 -2.77445221 9.56580711 -5 12 C-5.66 12 -6.32 12 -7 12 C-5.44298069 7.32894208 -2.91552627 3.91294315 0 0 Z " fill="#FCEBD5" transform="translate(855,465)"/>
<path d="M0 0 C0.33 0.99 0.66 1.98 1 3 C0.38125 3.2475 -0.2375 3.495 -0.875 3.75 C-3.15543159 4.81738099 -3.15543159 4.81738099 -3.9375 7.0625 C-4.288125 7.701875 -4.63875 8.34125 -5 9 C-7.625 9.75 -7.625 9.75 -10 10 C-6.66666667 6.66666667 -3.33333333 3.33333333 0 0 Z " fill="#FAE2C7" transform="translate(759,386)"/>
<path d="M0 0 C1.09651823 3.41139003 0.94215473 6.20655581 0.5625 9.75 C0.40974609 11.22726562 0.40974609 11.22726562 0.25390625 12.734375 C0.12822266 13.85585938 0.12822266 13.85585938 0 15 C-0.66 15 -1.32 15 -2 15 C-2.33 15.66 -2.66 16.32 -3 17 C-2.36934845 11.2190275 -1.34844868 5.6556294 0 0 Z " fill="#DE8744" transform="translate(579,359)"/>
<path d="M0 0 C0.33 0 0.66 0 1 0 C1.1799928 5.21979128 0.97094808 9.07262981 -1 14 C-1.66 14 -2.32 14 -3 14 C-2.48594831 9.03083364 -1.76615118 4.70973649 0 0 Z " fill="#FBE5CB" transform="translate(602,357)"/>
<path d="M0 0 C2.56564811 2.56564811 3.13640893 4.47920562 4 8 C3.625 11.875 3.625 11.875 3 15 C2.67 15 2.34 15 2 15 C2 12.36 2 9.72 2 7 C1.34 7 0.68 7 0 7 C0 4.69 0 2.38 0 0 Z " fill="#DD823E" transform="translate(797,266)"/>
<path d="M0 0 C0.33 0.66 0.66 1.32 1 2 C-2.0096463 8.48231511 -2.0096463 8.48231511 -5.75 10.4375 C-6.86375 10.7159375 -6.86375 10.7159375 -8 11 C-5.50127818 7.1626772 -2.9156164 3.54039134 0 0 Z " fill="#DC7E37" transform="translate(788,483)"/>
<path d="M0 0 C1.32 0.66 2.64 1.32 4 2 C4.1875 4.875 4.1875 4.875 4 8 C1 10 1 10 -1.1875 9.625 C-1.785625 9.41875 -2.38375 9.2125 -3 9 C-2.01 9 -1.02 9 0 9 C0 8.34 0 7.68 0 7 C0.66 7 1.32 7 2 7 C2 5.35 2 3.7 2 2 C1.34 2 0.68 2 0 2 C0 1.34 0 0.68 0 0 Z " fill="#D67E3E" transform="translate(647,346)"/>
<path d="M0 0 C0.66 0 1.32 0 2 0 C2.05422947 1.4370809 2.09289723 2.87475462 2.125 4.3125 C2.14820313 5.11300781 2.17140625 5.91351563 2.1953125 6.73828125 C2 9 2 9 0 12 C-0.66 12 -1.32 12 -2 12 C-1.34 8.04 -0.68 4.08 0 0 Z " fill="#D8762E" transform="translate(605,300)"/>
<path d="M0 0 C1.93833996 0.08715017 3.8757429 0.19532964 5.8125 0.3125 C7.43091797 0.39951172 7.43091797 0.39951172 9.08203125 0.48828125 C12.17497517 1.03068507 13.13022903 1.55289624 15 4 C9.72684667 3.5547115 4.98229776 2.91626837 0 1 C0 0.67 0 0.34 0 0 Z " fill="#FCE6CB" transform="translate(734,554)"/>
<path d="M0 0 C0.66 0 1.32 0 2 0 C1.5359375 1.485 1.5359375 1.485 1.0625 3 C-0.08433207 6.97731122 -0.56712356 10.88767379 -1 15 C-1.33 15 -1.66 15 -2 15 C-2.05386629 12.87527424 -2.09273071 10.75016348 -2.125 8.625 C-2.14820313 7.44164062 -2.17140625 6.25828125 -2.1953125 5.0390625 C-2 2 -2 2 0 0 Z " fill="#FEECD5" transform="translate(719,466)"/>
<path d="M0 0 C0.99 0 1.98 0 3 0 C1.7508258 3.45925163 0.32472205 6.14693203 -2 9 C-2.125 5.625 -2.125 5.625 -2 2 C-1.34 1.34 -0.68 0.68 0 0 Z " fill="#FEEBD2" transform="translate(836,411)"/>
<path d="M0 0 C0.33 0.66 0.66 1.32 1 2 C0.09515208 3.15518918 -0.8244206 4.29885406 -1.75 5.4375 C-2.26046875 6.07558594 -2.7709375 6.71367188 -3.296875 7.37109375 C-5.19667629 9.18810554 -6.43586908 9.60423197 -9 10 C-8.06409496 8.8944811 -7.12620142 7.79064547 -6.1875 6.6875 C-5.66542969 6.07261719 -5.14335938 5.45773437 -4.60546875 4.82421875 C-3.12827531 3.14575321 -1.59960869 1.56117966 0 0 Z " fill="#FEE8D0" transform="translate(771,568)"/>
<path d="M0 0 C0.66 0.99 1.32 1.98 2 3 C0.35 4.98 -1.3 6.96 -3 9 C-3.66 8.67 -4.32 8.34 -5 8 C-3.8141763 4.62496331 -2.72426311 2.35277269 0 0 Z " fill="#DE7B2F" transform="translate(724,463)"/>
<path d="M0 0 C0.66 0 1.32 0 2 0 C2 0.66 2 1.32 2 2 C2.8971875 2.37125 2.8971875 2.37125 3.8125 2.75 C6.28647521 4.16370012 7.43370255 5.65055383 9 8 C6 8 6 8 4.39453125 6.50390625 C3.61142578 5.54291016 3.61142578 5.54291016 2.8125 4.5625 C2.28269531 3.92441406 1.75289062 3.28632812 1.20703125 2.62890625 C0 1 0 1 0 0 Z " fill="#DD8341" transform="translate(631,561)"/>
<path d="M0 0 C4.42871657 2.21435828 6.54300595 4.72301036 9 9 C9 9.66 9 10.32 9 11 C8.34 11 7.68 11 7 11 C6.731875 10.030625 6.46375 9.06125 6.1875 8.0625 C5.795625 7.051875 5.40375 6.04125 5 5 C4.01 4.67 3.02 4.34 2 4 C2 3.34 2 2.68 2 2 C1.34 2 0.68 2 0 2 C0 1.34 0 0.68 0 0 Z " fill="#D97D39" transform="translate(686,431)"/>
<path d="M0 0 C0.75 1.5625 0.75 1.5625 1 4 C-0.13084437 6.50286409 -1.52139516 8.67007722 -3 11 C-3.66 11 -4.32 11 -5 11 C-3.77472971 6.94718288 -2.30119506 3.55639236 0 0 Z " fill="#DA7B36" transform="translate(846,398)"/>
<path d="M0 0 C1.32 0.33 2.64 0.66 4 1 C5.63938846 4.27877692 6.84238599 7.52715796 8 11 C7.34 11 6.68 11 6 11 C4.02 7.37 2.04 3.74 0 0 Z " fill="#FEF0DE" transform="translate(867,226)"/>
<path d="M0 0 C1.47906892 -0.02689216 2.95827483 -0.04634621 4.4375 -0.0625 C5.26121094 -0.07410156 6.08492187 -0.08570313 6.93359375 -0.09765625 C9 0 9 0 10 1 C10.04080783 2.99958364 10.04254356 5.00045254 10 7 C9.773125 6.360625 9.54625 5.72125 9.3125 5.0625 C8.15663759 2.76757003 8.15663759 2.76757003 5.5625 2.1875 C2.88060897 1.82612179 2.88060897 1.82612179 0 3 C0 2.01 0 1.02 0 0 Z " fill="#FAE7D0" transform="translate(653,219)"/>
<path d="M0 0 C0 0.66 0 1.32 0 2 C-1.423125 2.6496875 -1.423125 2.6496875 -2.875 3.3125 C-6.20041937 4.79302201 -6.20041937 4.79302201 -8 8 C-8.99 7.67 -9.98 7.34 -11 7 C-9.87720538 6.01830524 -8.75168527 5.03972702 -7.625 4.0625 C-6.68527344 3.24458984 -6.68527344 3.24458984 -5.7265625 2.41015625 C-3.71547429 0.76761588 -2.62199195 0 0 0 Z " fill="#D9782E" transform="translate(648,475)"/>
<path d="M0 0 C1.79240663 0.11389875 3.58394835 0.24147687 5.375 0.375 C6.87160156 0.47941406 6.87160156 0.47941406 8.3984375 0.5859375 C11 1 11 1 13 3 C9.57056481 4.18771723 7.62215325 3.80226223 4.25 2.5625 C3.45078125 2.27503906 2.6515625 1.98757813 1.828125 1.69140625 C1.22484375 1.46324219 0.6215625 1.23507812 0 1 C0 0.67 0 0.34 0 0 Z " fill="#FBE4C8" transform="translate(677,384)"/>
<path d="M0 0 C1.67110042 2.96178773 2.32682752 5.37071192 2.625 8.75 C2.69976563 9.54921875 2.77453125 10.3484375 2.8515625 11.171875 C2.90054688 11.77515625 2.94953125 12.3784375 3 13 C0.75393573 11.22555028 0.04918998 10.41647515 -0.29296875 7.51953125 C-0.25816406 6.62621094 -0.22335937 5.73289062 -0.1875 4.8125 C-0.16042969 3.91144531 -0.13335938 3.01039063 -0.10546875 2.08203125 C-0.07066406 1.39496094 -0.03585937 0.70789063 0 0 Z " fill="#F9DDC1" transform="translate(809,370)"/>
<path d="M0 0 C0.66 0 1.32 0 2 0 C1.3125 1.9375 1.3125 1.9375 0 4 C-2.625 4.75 -2.625 4.75 -5 5 C-5.33 4.01 -5.66 3.02 -6 2 C-4.02 2 -2.04 2 0 2 C0 1.34 0 0.68 0 0 Z " fill="#D98343" transform="translate(629,365)"/>
<path d="M0 0 C0.33 0.66 0.66 1.32 1 2 C0.14453125 3.91015625 0.14453125 3.91015625 -1.1875 6.0625 C-1.82751953 7.13177734 -1.82751953 7.13177734 -2.48046875 8.22265625 C-4.25241746 10.29524408 -5.34385824 10.63030147 -8 11 C-7.59007812 10.45730469 -7.18015625 9.91460937 -6.7578125 9.35546875 C-6.21898437 8.64003906 -5.68015625 7.92460937 -5.125 7.1875 C-4.59132813 6.47980469 -4.05765625 5.77210938 -3.5078125 5.04296875 C-2.29185219 3.39543703 -1.13583859 1.70375789 0 0 Z " fill="#FCE7CD" transform="translate(666,299)"/>
<path d="M0 0 C0.33 0.99 0.66 1.98 1 3 C-2.75 6 -2.75 6 -5 6 C-5 6.66 -5 7.32 -5 8 C-5.66 7.67 -6.32 7.34 -7 7 C-4.78071806 4.09197539 -3.07030857 2.04687238 0 0 Z " fill="#DE7E39" transform="translate(622,253)"/>
<path d="M0 0 C0.33 0 0.66 0 1 0 C1.3227506 4.62609198 0.84450614 7.28026121 -2 11 C-2.66 11 -3.32 11 -4 11 C-2.7874262 7.27566618 -1.49140021 3.62197194 0 0 Z " fill="#DE8746" transform="translate(802,456)"/>
<path d="M0 0 C0.99 1.32 1.98 2.64 3 4 C3.66 2.68 4.32 1.36 5 0 C5 2.31 5 4.62 5 7 C3.68 6.67 2.36 6.34 1 6 C0.67 4.02 0.34 2.04 0 0 Z " fill="#E79455" transform="translate(570,414)"/>
<path d="M0 0 C0 0.66 0 1.32 0 2 C-1.32 2 -2.64 2 -4 2 C-3.67 3.65 -3.34 5.3 -3 7 C-5 5.6875 -5 5.6875 -7 4 C-7 3.01 -7 2.02 -7 1 C-2.25 0 -2.25 0 0 0 Z " fill="#FEEED6" transform="translate(650,355)"/>
<path d="M0 0 C2.31 0.33 4.62 0.66 7 1 C5.70700306 3.88437779 4.34058637 5.87219421 2 8 C2.50603992 5.83125748 2.99983813 4.00032373 4 2 C2.68 2 1.36 2 0 2 C0 1.34 0 0.68 0 0 Z " fill="#FDEACE" transform="translate(759,355)"/>
<path d="M0 0 C0.95465783 2.16967689 1.14401212 3.56328793 0.3984375 5.82421875 C-0.35870385 7.5684743 -1.17609198 9.28627131 -2 11 C-2.66 11 -3.32 11 -4 11 C-3.52269162 9.5410574 -3.04308958 8.08286504 -2.5625 6.625 C-2.29566406 5.81289063 -2.02882813 5.00078125 -1.75390625 4.1640625 C-1 2 -1 2 0 0 Z " fill="#DA7E39" transform="translate(588,336)"/>
<path d="M0 0 C0.33 0 0.66 0 1 0 C1.390625 5.859375 1.390625 5.859375 1 8 C-0.32 9.32 -1.64 10.64 -3 12 C-2.01 8.04 -1.02 4.08 0 0 Z " fill="#FBE2C7" transform="translate(558,283)"/>
<path d="M0 0 C0.66 0 1.32 0 2 0 C0.6302836 3.99500618 -1.25722422 6.80009492 -4 10 C-4 8.35 -4 6.7 -4 5 C-3.34 5 -2.68 5 -2 5 C-2 4.34 -2 3.68 -2 3 C-1.34 3 -0.68 3 0 3 C0 2.01 0 1.02 0 0 Z " fill="#D97932" transform="translate(687,262)"/>
<path d="M0 0 C0.66 0.33 1.32 0.66 2 1 C-0.13478166 4.20217249 -1.62795029 5.27285259 -5 7 C-5.99 7 -6.98 7 -8 7 C-5.36 4.69 -2.72 2.38 0 0 Z " fill="#FDE7CE" transform="translate(611,211)"/>
<path d="M0 0 C1.31602523 0.61754259 2.62773556 1.24428742 3.9375 1.875 C4.66839844 2.22304687 5.39929688 2.57109375 6.15234375 2.9296875 C8 4 8 4 9 6 C6.75 6.25 6.75 6.25 4 6 C1.6875 4.125 1.6875 4.125 0 2 C0 1.34 0 0.68 0 0 Z " fill="#DC7E38" transform="translate(801,165)"/>
<path d="M0 0 C3.57804656 -0.19878036 5.99208089 -0.04108797 9 2 C9.33 2.99 9.66 3.98 10 5 C6.08788267 3.84414715 3.1254959 2.64465038 0 0 Z " fill="#FEEBD5" transform="translate(787,157)"/>
<path d="M0 0 C1.41750563 0.11509661 2.83401169 0.24253658 4.25 0.375 C5.03890625 0.44460937 5.8278125 0.51421875 6.640625 0.5859375 C9.085877 1.01507113 10.84836903 1.78600638 13 3 C8.07872966 3.16682272 4.49656104 3.24828052 0 1 C0 0.67 0 0.34 0 0 Z " fill="#DB7B34" transform="translate(743,144)"/>
<path d="M0 0 C0.66 1.32 1.32 2.64 2 4 C0.35 5.65 -1.3 7.3 -3 9 C-2.01 6.03 -1.02 3.06 0 0 Z " fill="#FDE9D2" transform="translate(564,269)"/>
<path d="M0 0 C-1.32 1.32 -2.64 2.64 -4 4 C-5.32 3.34 -6.64 2.68 -8 2 C-4.77208445 -0.1519437 -3.71599191 -0.20086443 0 0 Z " fill="#D97C3A" transform="translate(709,625)"/>
<path d="M0 0 C0 3 0 3 -2.5 5.6875 C-3.325 6.450625 -4.15 7.21375 -5 8 C-5.66 7.67 -6.32 7.34 -7 7 C-4.69 4.69 -2.38 2.38 0 0 Z " fill="#FFECD5" transform="translate(822,509)"/>
<path d="M0 0 C-2.35968744 2.09749995 -3.54616994 2.96905704 -6.75 3.1875 C-7.86375 3.0946875 -7.86375 3.0946875 -9 3 C-9 2.34 -9 1.68 -9 1 C-2.25 -1.125 -2.25 -1.125 0 0 Z " fill="#FDE8CF" transform="translate(648,318)"/>
<path d="M0 0 C0.33 0.66 0.66 1.32 1 2 C-1.48387097 8.74193548 -1.48387097 8.74193548 -4 10 C-3.52449439 8.51965236 -3.04448784 7.04074979 -2.5625 5.5625 C-2.29566406 4.73878906 -2.02882813 3.91507813 -1.75390625 3.06640625 C-1 1 -1 1 0 0 Z " fill="#DA8647" transform="translate(723,242)"/>
<path d="M0 0 C-0.625 1.9375 -0.625 1.9375 -2 4 C-5.125 4.75 -5.125 4.75 -8 5 C-3.16129032 0 -3.16129032 0 0 0 Z " fill="#DD8039" transform="translate(608,165)"/>
</svg>
