<svg xmlns="http://www.w3.org/2000/svg" viewBox="0 0 64 64" role="img" aria-label="DCH favicon">
  <title>Dónde Comemos Hoy favicon</title>
  <path fill="#F97316" d="M32 3C20.4 3 11 12.4 11 24c0 15.8 21 37 21 37s21-21.2 21-37C53 12.4 43.6 3 32 3z"/>
  <circle cx="32" cy="24" r="14" fill="#FFFFFF"/>
  <path fill="#F97316" d="M23 14c.8 0 1.4.6 1.4 1.4v8.5h2.2v-8.5c0-.8.6-1.4 1.4-1.4s1.4.6 1.4 1.4v8.5h2.2v-8.5c0-.8.6-1.4 1.4-1.4s1.4.6 1.4 1.4v9.7c0 3.1-2.1 5.6-5 6.2V40c0 .9-.7 1.6-1.6 1.6s-1.6-.7-1.6-1.6v-8.7c-2.9-.6-5-3.1-5-6.2v-9.7c0-.8.6-1.4 1.4-1.4z"/>
  <path fill="#F97316" d="M42.5 14c3.1 0 5.5 3.2 5.5 7.2 0 3.4-1.8 6.3-4.3 7V40c0 .9-.7 1.6-1.6 1.6s-1.6-.7-1.6-1.6V28.2c-2.5-.7-4.3-3.6-4.3-7 0-4 2.4-7.2 5.5-7.2h.8z"/>
</svg>
