<svg xmlns="http://www.w3.org/2000/svg" viewBox="0 0 64 64">
  <path fill="#F97316" d="M32 3C20.4 3 11 12.4 11 24c0 15.8 21 37 21 37s21-21.2 21-37C53 12.4 43.6 3 32 3z"/>
  <circle cx="32" cy="24" r="16" fill="#FFFFFF"/>
  <path fill="#F97316" d="M23 15c.9 0 1.6.7 1.6 1.6v7.2h2.1v-7.2c0-.9.7-1.6 1.6-1.6s1.6.7 1.6 1.6v7.2H32v-7.2c0-.9.7-1.6 1.6-1.6s1.6.7 1.6 1.6v9.1c0 3.1-2.1 5.7-5 6.4v12.4c0 1.2-1 2.2-2.2 2.2s-2.2-1-2.2-2.2V32.1c-2.9-.7-5-3.3-5-6.4v-9.1c.1-.9.8-1.6 1.7-1.6z"/>
  <path fill="#F97316" d="M43 15c4 0 7 4.1 7 9.1 0 4.2-2.1 7.7-5.1 8.8v11.6c0 1.2-1 2.2-2.2 2.2s-2.2-1-2.2-2.2V32.9c-3-1.1-5.1-4.6-5.1-8.8C35.4 19.1 38.9 15 43 15z"/>
  <path fill="none" stroke="#F97316" stroke-width="4" stroke-linecap="round" d="M23 36c2.5 3.2 5.5 4.8 9 4.8s6.5-1.6 9-4.8"/>
</svg>
